<?xml version="1.0" encoding="UTF-8"?>
<svg id="Layer_1" xmlns="http://www.w3.org/2000/svg" xmlns:xlink="http://www.w3.org/1999/xlink" version="1.1" viewBox="0 0 1080 1080">
  <!-- Generator: Adobe Illustrator 30.4.0, SVG Export Plug-In . SVG Version: 2.1.4 Build 226)  -->
  <defs>
    <style>
      .st0 {
        fill: url(#linear-gradient);
      }

      .st1 {
        fill: #0d2150;
      }
    </style>
    <linearGradient id="linear-gradient" x1="569.2" y1="409.6" x2="940" y2="409.6" gradientTransform="translate(0 1077.8898) scale(1 -1)" gradientUnits="userSpaceOnUse">
      <stop offset="0" stop-color="#ebd18c"/>
      <stop offset=".2" stop-color="#e6cb8a"/>
      <stop offset=".5" stop-color="#f7e7b5"/>
      <stop offset=".8" stop-color="#d1b57a"/>
      <stop offset="1" stop-color="#f6d97a"/>
    </linearGradient>
  </defs>
  <g id="Layer_1-2">
    <g>
      <path d="M415.4,523.9c.4-1.3,3-2.4,4.1-2.6s4,1.8,3.5,3.1l-4.7,12.6c6-7.4,15.7-19.3,22.5-15.9,1.3.7,2.7,3.5,2.1,4.9-1.7,4-5.6-3-12.4,3.2-7.8,6.9-13.4,14.9-17.5,24.6-.9.8-3.9.7-4.7-.5-.6-1-.7-3-.9-4.8-3.6,3.9-9.6,6.8-13.8,3.5-3.6-2.8-2.6-8-2-12.3l-6.4,7.5c-5,5.8-12.4,9.3-16.5,5.3-1.2-1.2-1.8-3.9-2.4-6.4-4.8,6-12,9.7-16.7,6.2-1.2-.9-2.6-4.1-2.4-5.7l2.2-12.7c.3-1.5,0-3.1-.8-4.7-4.6,3-8.1,5.8-11.1,10l-10.5,14.4c-.7,1-3.4,1.2-4.3.7s-2-2.9-1.8-4l1.8-7.7c-6.8,6.9-16.6,15.7-24,10.1-4.8-3.6-7.4-9.7-7.7-15.8,1-.5,3-.9,4.3-1.2,8.4-1.7,15.7-10.8,14.3-14.1-1.2-2.8-11.9,4.7-15.1,9.8l-8.9,14c-1.9,3-2,6.5-1.5,10.1-1.9,1-5.1,0-5.8-2.4-.6-2.1-.6-5-.6-7.6-5.5,7-13.3,14-20.2,9.7-5.1-3.2-3-14.1-.7-21.8,5.2-17.9,12.2-34.9,20.5-51.6,2.3-4.6,7-9,10.2-7.4.7.4,1.1,2.6.7,3.4l-8.6,17.4c-5.7,11.6-25.1,55-16.5,57.4,4.3,1.2,11.1-7.7,15.9-12.9,5.1-17.1,11.5-33.8,19-50.4,3.2-7,7.9-15.2,11.9-11,.8.9,1,3,.3,4.5l-10.6,22c-4.7,9.8-8.9,19.3-12.2,29.8,5.9-8.2,18.6-21.2,26-17.2,3.9,2.1,3.2,7.1,1.1,10.4-3.9,6.2-10.1,9.5-16.8,11.5,1.7,4.2,2.9,8.6,7.1,10.4,2.4,1,6.2-1,8.2-2.8,3.8-3.5,8.2-6.7,11.2-10.7,4.1-5.4,5.3-21.7,11.8-15.3,1.3,1.3,1.4,3.5.7,5.4l-4.9,12.9c6.6-6.8,16.3-18.1,22.8-15,1.6.8,3,3.8,2.6,5.8l-2.9,15.5c-.1.7.4,2.7.9,3.3,1.7,2.1,8.4-3.4,12-7.9,2-8.2,7.8-21.2,13.8-21.1,1.1,0,3.2,2.3,2.5,3.3-4.5,7.3-12.2,21-9.3,25.9,2,3.4,12.7-9,17.3-15.6l6.1-9c.6-.9,2.7-1.7,3.5-1.8,1,0,2.8,1.1,3.1,2.2-3,7.2-8.2,19.8-5.6,24.1.4.6,2.6.4,3.2-.1l7.8-7.3,5.9-17.7h0Z"/>
      <path d="M547,544.5c-5.4,7.2-14.9,13.2-20.5,7.7-9.3-8.9,11.7-33.7,28-32.2,4,.4,7.5,4,5.6,7.9-1.4-1.6-2.6-3.4-3.7-4.2s-4.2-.4-5.7.3c-8.5,3.9-14.6,11.3-18.3,20-.7,1.5-.3,3.8.3,5.6,2.8-.9,5.6-1.9,7.4-3.9l13.4-14.6c.7-.8,2.8-1.3,3.7-1.1,1.1.3,2.6,2.6,2,3.6-3.3,5.6-7.1,12.7-4.2,15.8,1.6,1.7,11-4.9,12.9-10.1l5.9-16.5c.6-1.8,3.5-2.5,4.9-1.8,2,1.1,2.4,2.9,1.6,5.2l-4.4,12.3c6.1-6.4,16-18.1,21.6-13.9,1.5,1.2,2.6,4.2,2.2,6.4l-2.8,14.9c-.2.8.5,2.9,1.2,3.3,2.2,1.2,8.3-4.6,11.1-8.7l3.1-12.1c5.1-15.9,11.3-30.9,19-45.7,2-3.8,6.8-6.1,8.7-4.3.5.5.7,2,.3,2.7l-5.5,11.7c-5.3,11.3-10.6,22-14.8,33.8-2.9,7.9-8,22.8-4.2,25.6,3.4,2.5,12.8-7.2,14.6-12.6,2.1-6.3,4.3-11.7,8.2-17.2,1.3-1.9,2.6-3.4,4.5-2.8,7.6,2.6-4.7,10.8-6.7,26.3-.1,1,.6,3,1.4,3.4,5.3,2.5,15.2-13.3,15.5-10.3.3,3.4-10.2,18-20,14-1.7-.7-3.1-3.3-3.9-5.8-5.4,7-13.5,12.6-19,7.3-1.7-1.7-2.1-5-2.3-8.1-3,3.4-6.5,6.5-11,7.2-3.7.6-7.1-1.7-7.1-5.7-.1-7.7,2.7-12.7,1.8-18.3-7.5,2.7-15.4,15.2-20.2,22.9-1.1,1.8-3,2.6-4.6,1.9-2.3-.9-2.6-3.3-2.1-5.7-5.4,5-12.9,7.3-16,3.2-1.4-1.8-1.6-4.2-1.9-7.3h0Z"/>
      <path d="M483.3,562.8c12.2-4.9,28-13.2,33.4-24.7,1.3-2.8,1.8-6.9-.4-9.3-6.4-7-22.7-4.7-33.2-2.5l-8.6,24.7c-.8,2.4-3.3,3.7-5.6,3.1s-3.1-3.1-2.2-5.7c6.5-18.6,14.2-36.3,22.3-54.2,1.1-2.4.9-4.6,3.7-4.9,1.8-.2,5.9,1.5,4.7,4.2l-11.1,25.1c14.7-2.3,40.3-18.4,33.1-30.3-1.9-3.2-5.8-4.7-9.6-5.2-14.3-1.6-29,2.4-40.1,11.3-3.9,3.1-6.7,7-7.8,11.7-2.2.9-4.7-1.4-4.7-3.9,0-3.9,2-7,4.9-9.4,21.4-18.1,59-18.3,64.6-3.3,4.9,13.2-12.5,24.9-25.9,30,5.7.6,10.8,1.4,15.6,3.8,5.9,3.3,9,9.3,7,16.1-6.4,21.4-51,41-68.8,31.3-4-2.2-5.9-6.2-4.8-10.6,1.7-6.9,6.8-12.8,14.3-14.4-5.7,5.9-12.6,13.8-9,18.8,3.9,5.3,19.8,2.1,28.7-1.4h0Z"/>
      <path d="M739.2,519.9c3.1-.9,6.9-1.2,8.9,1,6.2,7.1-8,19.4-19.9,21-.5,2.9-.5,6.8,2,8,3.6,1.8,8,.2,11.6-1.4,5.6-2.5,8.8-7.7,14.4-11.3-3.7,10.1-14.4,16.6-24.4,17.1-6.7.3-11.9-3.6-12.2-10.2-11.5,10.6-26.1,21.2-41.8,20-10.2-.8-17.4-8.2-17.7-18.6-.9-28.8,30.5-65.4,56.6-65.5,6.5,0,11.8,4,13,10.1.4,9.2-5.4,17.3-14.3,19.8l-2.1-1c-.5-.3.5-1.4,1-1.9,6.6-6.1,13.2-15.7,8.7-20.9-1.2-1.4-4.6-2.7-7-2.2-21.6,4.5-39.4,28.9-45.6,50-1.5,5-1.9,10.3-.8,15.3,1.3,5.8,5.9,9.8,11.9,10.2,5,.3,9.7-1.2,14.3-3.1,9.5-4.2,17.9-10.1,24.9-17.5,3.1-8.9,9.9-15.2,18.5-19h0ZM742.5,523.7c-6.3,3.4-10.9,9.1-13.1,15.4,17.1-6.3,18.9-18.6,13.1-15.4Z"/>
      <path d="M829.4,535.3c6.7-7.5,18.3-20.7,22.9-11.7.3.6.3,2.3,0,2.9-1.4,2.3-5.7-2.4-11.2,2.3-7.9,6.7-13.3,14.9-17.7,24.4-.5,1.2-3.3,1.5-4.3.8-1.3-.8-1.7-2.8-1.8-4.6-3,2.6-8.4,5.6-12.2,2.9s-2.9-8.3-2.7-12.9c-5.6,8.2-15.1,18.6-21.6,13.7-3.1-2.3-3-5.8-3-9.8l-6.2,5.8c-7.5,7-19.8,8.7-21.3,5-.3-.8.9-2.8,1.7-3.1l2.4-.9c.5-.2,1.3,1.8,1.8,2,2.4.6,6.9-1.4,8.5-3.7,2-2.7,1.6-5.4-.5-7.7l-5.7-6.1c-2.6-2.8-3.1-7.1-.3-10.1,4.8-5.1,12.9-7.6,19.5-5.6.8.2.8,2.7.2,3-.8.4-2.2.6-3.5.4-3.9-.8-9.1,1.6-10.5,5.9.4,5.3,8.3,7.7,10.1,15.5l4.5-4c1.9-6.3,5.3-13.2,9.5-18.1.7-.8,3-1.2,3.9-1.3,1-.1,3.1,2.1,2.6,3-4.8,8.1-11.2,17.6-9.1,26.5,12.9-4.3,19.2-24.2,24.7-26.9,1.2-.6,3.9.1,4.8,1.3-4,8.6-8.7,26.6-4.2,24.9,3-1.1,7-4.1,8.5-6.8l6.2-18.2c.4-1.1,2.6-2.5,3.7-2.7,1.4-.3,3.7,1.2,4.1,2.5l-3.9,11.2h0Z"/>
      <path d="M233.7,566.1c-1.3,2.2-4.5,3.7-7.5,3.3-7.6-.9-5.3-13.4-2.5-22.6,8.1-26.1,18.4-51.1,31.3-75.2.8-1.5,3-2.9,4.2-3.2,1.4-.4,3.7.6,5.1,2.4-13.5,25.8-24.9,51.9-33.1,79.8l-2.6,12.4c-.1.7.8,2.7,1.4,2.7l3.6.3h0Z"/>
      <path d="M267.1,460.8c-2.1,1.6-5.6,2.7-7.5.7-2.1-2.2-.7-5.5.9-7,2-1.9,5.1-2.6,7.4-.6,2.1,1.8,1.4,5.3-.8,6.9Z"/>
    </g>
    <g>
      <path d="M456.3,449.6v-22.6c0-1.8-.3-2.9-.8-3.5s-1.7-.8-3.6-.9v-1h12.8c6.7,0,11.9,1.4,15.4,4.3,3.5,2.8,5.3,7,5.3,12.4s-1.8,9.2-5.3,12.2-8.4,4.4-14.5,4.4h-13.7v-1c1.8,0,3-.3,3.6-.9.6-.5.8-1.7.8-3.5h0ZM461.4,450.3c0,1,.2,1.7.5,2.1s.9.6,1.8.6h1.6c4.7.1,8.3-1.2,10.8-3.7s3.8-6.2,3.8-10.9-1.4-8.3-4.1-10.9-6.5-3.9-11.5-3.9h-1.2c-.7,0-1.2.2-1.4.5s-.3.8-.3,1.7v24.5h0Z"/>
      <path d="M491.8,452.2c-2.1-2.2-3.1-4.9-3.1-8.3s1-6.4,3.1-8.6,4.7-3.4,8-3.4,5.9,1.1,8,3.3,3.1,5,3.1,8.4-1,6.3-3.1,8.6-4.7,3.4-8,3.4-5.9-1.1-8-3.3h0ZM504.7,451.9c1.1-1.4,1.6-3.4,1.6-5.8,0-3.9-.6-7-1.9-9.3s-3-3.5-5.2-3.5-3.3.7-4.4,2.2-1.6,3.4-1.6,5.9c0,3.9.7,7,2,9.3s3,3.5,5.2,3.5,3.3-.7,4.4-2.2Z"/>
      <path d="M533,447.6c-1.2,2.6-2.6,4.6-4.2,5.9s-3.5,2-5.7,2-5-1-6.8-3.1-2.7-4.8-2.7-8,1.1-6.5,3.2-8.9,4.8-3.6,8-3.6,3.7.5,5.2,1.5c1.5,1,2.3,2.2,2.3,3.5s-.2,1.2-.6,1.6c-.4.4-1,.6-1.6.6s-1.3-.2-1.7-.7-.7-1.2-1-2.3-.6-1.8-1.1-2.2-1.3-.6-2.4-.6c-1.8,0-3.4.9-4.6,2.6-1.2,1.7-1.9,3.8-1.9,6.4s.7,5,2.2,6.8c1.5,1.8,3.3,2.7,5.5,2.7s2.5-.3,3.6-1.1,2.3-1.9,3.5-3.6l.7.4h0ZM524.3,455l-1.2,3.2h1.3c1.3,0,2.4.3,3.1.9s1.1,1.5,1.1,2.6-.6,2.3-1.7,3.1-2.6,1.2-4.4,1.2-1.7,0-2.5-.3-1.5-.4-1.9-.6l.7-1.5c.5.2,1,.3,1.6.4s1.1.2,1.5.2c1,0,1.7-.2,2.2-.6s.8-1,.8-1.7-.2-1.1-.6-1.4-.9-.5-1.7-.5-.8,0-1.1,0-.6,0-.7.2l-.4-.3,2.1-5h1.8,0Z"/>
      <path d="M540.9,449.9c.8,0,1.4.3,2,.8s.8,1.2.8,2-.3,1.4-.8,2-1.2.8-2,.8-1.4-.3-2-.8-.8-1.2-.8-2,.3-1.4.8-2,1.2-.8,2-.8Z"/>
      <path d="M564.9,449.6v-22.6c0-1.8-.3-2.9-.8-3.5s-1.7-.8-3.6-.9v-1h12.8c6.7,0,11.9,1.4,15.4,4.3,3.5,2.8,5.3,7,5.3,12.4s-1.8,9.2-5.3,12.2-8.4,4.4-14.5,4.4h-13.7v-1c1.8,0,3-.3,3.6-.9.6-.5.8-1.7.8-3.5ZM570,450.3c0,1,.2,1.7.5,2.1s.9.6,1.8.6h1.6c4.7.1,8.3-1.2,10.8-3.7s3.8-6.2,3.8-10.9-1.4-8.3-4.1-10.9-6.5-3.9-11.5-3.9h-1.2c-.7,0-1.2.2-1.4.5s-.3.8-.3,1.7v24.5h0Z"/>
      <path d="M599.7,450.3v-12c0-1.5-.2-2.5-.7-2.8s-1.4-.4-2.8,0v-.8c1.4-.5,2.7-.9,3.7-1.3,1-.4,2.3-.9,3.7-1.5l.2.2v4.7c.8-1.3,1.7-2.4,2.5-3.2,1.2-1.1,2.4-1.6,3.6-1.6s1.5.3,2,.7.7,1.2.7,2-.2,1.2-.5,1.6-.8.6-1.4.6-.6,0-.9-.2-.6-.3-.9-.6-.6-.5-.9-.7-.5-.3-.7-.3c-.6,0-1.1.3-1.7.9-.4.4-.7.9-1.2,1.5-.2.3-.3.6-.4.9s-.2.7-.2.9v11c0,1.6.3,2.6.8,3.1s1.7.8,3.5.8v.7h-12.1v-.7c1.5,0,2.5-.3,2.9-.8.4-.5.7-1.5.7-3.1h0Z"/>
      <path d="M618.9,449.9c.8,0,1.4.3,2,.8s.8,1.2.8,2-.3,1.4-.8,2-1.2.8-2,.8-1.4-.3-2-.8-.8-1.2-.8-2,.3-1.4.8-2,1.2-.8,2-.8Z"/>
    </g>
    <g>
      <path d="M306,668.9c-1.4,0-2.7-.2-3.9-.7s-2.2-1.1-3.1-2c-.9-.8-1.5-1.8-2-3s-.7-2.4-.7-3.7.2-2.6.7-3.7,1.2-2.1,2-3c.9-.8,1.9-1.5,3.1-2s2.5-.7,3.9-.7,2.6.2,3.8.7c1.2.4,2.2,1.1,3,2l-1.2,1.2c-.8-.8-1.6-1.3-2.5-1.7-.9-.3-1.9-.5-3-.5s-2.1.2-3.1.6-1.8.9-2.5,1.6-1.3,1.5-1.6,2.4-.6,1.9-.6,3.1.2,2.1.6,3.1c.4.9.9,1.7,1.6,2.4s1.5,1.2,2.5,1.6c.9.4,2,.6,3.1.6s2-.2,3-.5c.9-.3,1.8-.9,2.5-1.7l1.2,1.2c-.8.9-1.8,1.6-3,2-1.2.5-2.5.7-3.8.7h0ZM305.1,674.6c-.4,0-.8,0-1.2-.2-.4-.1-.7-.3-1-.4l.4-1c.3.2.5.3.8.4s.6.1.9.1c.5,0,.9-.1,1.2-.3.3-.2.4-.5.4-.9s-.1-.6-.4-.9c-.3-.2-.7-.3-1.2-.3h-.6l.6-2.4h1.1l-.4,1.5c.7,0,1.3.3,1.7.7s.6.9.6,1.5-.3,1.3-.8,1.7-1.3.6-2.1.6h0Z"/>
      <path d="M330.4,668.9c-1.4,0-2.7-.2-3.9-.7-1.2-.5-2.2-1.1-3.1-2-.9-.8-1.5-1.9-2-3s-.7-2.4-.7-3.7.2-2.6.7-3.7,1.2-2.1,2-3c.9-.8,1.9-1.5,3.1-2s2.5-.7,3.9-.7,2.7.2,3.9.7,2.2,1.1,3.1,2,1.5,1.8,2,3c.5,1.1.7,2.4.7,3.7s-.2,2.6-.7,3.7-1.2,2.1-2,3c-.9.8-1.9,1.5-3.1,2s-2.5.7-3.9.7h0ZM330.4,667.2c1.1,0,2.1-.2,3.1-.6s1.8-.9,2.5-1.6,1.2-1.5,1.6-2.4.6-1.9.6-3.1-.2-2.1-.6-3.1-.9-1.7-1.6-2.4-1.5-1.2-2.5-1.6c-.9-.4-2-.6-3.1-.6s-2.1.2-3.1.6c-.9.4-1.8.9-2.5,1.6s-1.3,1.5-1.6,2.4-.6,1.9-.6,3.1.2,2.1.6,3,.9,1.7,1.6,2.4,1.5,1.2,2.5,1.6c.9.4,2,.6,3.1.6h0Z"/>
      <path d="M357.7,668.9c-1.4,0-2.7-.2-3.9-.7s-2.2-1.1-3.1-2c-.9-.8-1.5-1.8-2-3s-.7-2.4-.7-3.7.2-2.6.7-3.7,1.2-2.1,2-3c.9-.8,1.9-1.5,3.1-2s2.5-.7,3.9-.7,2.6.2,3.8.7c1.2.4,2.2,1.1,3,2l-1.2,1.2c-.8-.8-1.6-1.3-2.5-1.7-.9-.3-1.9-.5-3-.5s-2.1.2-3.1.6-1.8.9-2.5,1.6-1.3,1.5-1.6,2.4-.6,1.9-.6,3.1.2,2.1.6,3.1c.4.9.9,1.7,1.6,2.4s1.5,1.2,2.5,1.6c.9.4,2,.6,3.1.6s2-.2,3-.5c.9-.3,1.8-.9,2.5-1.7l1.2,1.2c-.8.9-1.8,1.6-3,2-1.2.5-2.5.7-3.8.7h0Z"/>
      <path d="M381.4,668.9c-2.4,0-4.2-.7-5.6-2s-2-3.4-2-6v-10.6h2v10.5c0,2.2.5,3.8,1.5,4.8,1,1,2.4,1.6,4.2,1.6s3.2-.5,4.2-1.6c1-1,1.5-2.6,1.5-4.8v-10.5h1.9v10.6c0,2.7-.7,4.7-2,6s-3.2,2-5.6,2h0Z"/>
      <path d="M400.2,668.8v-18.5h2v18.5h-2ZM401.8,664.2v-2.4c0,0,11.1-11.5,11.1-11.5h2.2l-8.2,8.6-1.1,1.2-4.1,4.2h0ZM413.4,668.8l-8-9.2,1.3-1.4,9,10.6h-2.3Z"/>
      <path d="M444.4,668.9c-1.4,0-2.7-.2-3.9-.7s-2.2-1.1-3.1-2c-.9-.8-1.5-1.8-2-3s-.7-2.4-.7-3.7.2-2.6.7-3.7,1.2-2.1,2-3c.9-.8,1.9-1.5,3.1-2s2.5-.7,3.9-.7,2.6.2,3.8.7c1.2.4,2.2,1.1,3,2l-1.2,1.2c-.8-.8-1.6-1.3-2.5-1.7-.9-.3-1.9-.5-3-.5s-2.1.2-3.1.6-1.8.9-2.5,1.6-1.3,1.5-1.6,2.4-.6,1.9-.6,3.1.2,2.1.6,3.1c.4.9.9,1.7,1.6,2.4s1.5,1.2,2.5,1.6c.9.4,2,.6,3.1.6s2-.2,3-.5c.9-.3,1.8-.9,2.5-1.7l1.2,1.2c-.8.9-1.8,1.6-3,2-1.2.5-2.5.7-3.8.7h0Z"/>
      <path d="M462.6,667.1h11.1v1.7h-13.1v-18.5h12.7v1.7h-10.7v15.1h0ZM462.4,658.5h9.8v1.7h-9.8v-1.7Z"/>
      <path d="M483.6,668.8v-18.5h6.9c1.6,0,2.9.3,4,.8s2,1.2,2.6,2.2c.6.9.9,2.1.9,3.4s-.3,2.4-.9,3.4c-.6.9-1.5,1.7-2.6,2.2s-2.5.8-4,.8h-5.8l.9-.9v6.8h-2ZM485.6,662.2l-.9-.9h5.8c1.9,0,3.2-.4,4.2-1.2s1.4-2,1.4-3.4-.5-2.6-1.4-3.4-2.4-1.2-4.2-1.2h-5.8l.9-.9v11.1h0ZM496.2,668.8l-4.8-6.7h2.1l4.8,6.7h-2.1Z"/>
      <path d="M508,668.8v-18.5h6.9c1.6,0,2.9.3,4,.8s2,1.2,2.6,2.2c.6.9.9,2.1.9,3.4s-.3,2.4-.9,3.4c-.6.9-1.5,1.7-2.6,2.2s-2.5.8-4,.8h-5.8l.9-.9v6.8h-2ZM509.9,662.2l-.9-.9h5.8c1.9,0,3.2-.4,4.2-1.2s1.4-2,1.4-3.4-.5-2.6-1.4-3.4-2.4-1.2-4.2-1.2h-5.8l.9-.9v11.1h0ZM520.6,668.8l-4.8-6.7h2.1l4.8,6.7h-2.1Z"/>
      <path d="M529.4,668.8l8.4-18.5h1.9l8.4,18.5h-2.1l-7.8-17.3h.8l-7.8,17.3h-2,0ZM532.7,663.8l.6-1.6h10.7l.6,1.6h-11.9Z"/>
      <path d="M558.5,668.8h-2v-18.5h2v18.5ZM570.3,660.2h-12v-1.7h12v1.7ZM570.1,650.3h1.9v18.5h-1.9v-18.5Z"/>
      <path d="M584.3,648.2c-.3,0-.7-.1-.9-.4s-.4-.5-.4-.9.1-.7.4-.9c.3-.3.5-.4.9-.4s.7.1.9.4c.3.3.4.5.4.9s-.1.7-.4.9-.5.4-.9.4ZM583.3,668.8v-18.5h2v18.5h-2Z"/>
      <path d="M601.7,668.9c-1.4,0-2.7-.2-3.9-.7-1.3-.4-2.2-1-2.9-1.7l.8-1.5c.7.6,1.5,1.2,2.6,1.6,1.1.4,2.3.6,3.5.6s2.1-.1,2.8-.4c.7-.3,1.3-.7,1.6-1.2.3-.5.5-1,.5-1.6s-.2-1.3-.6-1.7c-.4-.4-1-.8-1.6-1-.7-.3-1.4-.5-2.2-.7s-1.6-.4-2.4-.6-1.6-.5-2.2-.9-1.2-.9-1.6-1.5c-.4-.6-.6-1.4-.6-2.4s.2-1.8.7-2.5c.5-.8,1.2-1.4,2.2-1.9,1-.5,2.3-.7,3.9-.7s2.1.1,3.1.4c1,.3,1.9.7,2.6,1.2l-.7,1.6c-.8-.5-1.6-.9-2.5-1.2-.9-.3-1.7-.4-2.6-.4s-2,.2-2.7.4c-.7.3-1.3.7-1.6,1.2s-.5,1.1-.5,1.7.2,1.3.6,1.7,1,.8,1.6,1,1.4.5,2.2.7c.8.2,1.6.4,2.4.6.8.2,1.5.5,2.2.9.7.4,1.2.8,1.6,1.4s.6,1.4.6,2.4-.3,1.7-.7,2.5-1.2,1.4-2.3,1.9c-1,.5-2.3.7-3.9.7h0Z"/>
      <path d="M619,648.2c-.3,0-.7-.1-.9-.4-.3-.3-.4-.5-.4-.9s.1-.7.4-.9c.3-.3.5-.4.9-.4s.7.1.9.4c.3.3.4.5.4.9s-.1.7-.4.9c-.3.3-.5.4-.9.4ZM618.1,668.8v-18.5h2v18.5h-2Z"/>
      <path d="M651,668.9c-2.4,0-4.2-.7-5.6-2s-2-3.4-2-6v-10.6h2v10.5c0,2.2.5,3.8,1.5,4.8s2.4,1.6,4.2,1.6,3.2-.5,4.2-1.6c1-1,1.5-2.6,1.5-4.8v-10.5h1.9v10.6c0,2.7-.7,4.7-2,6s-3.2,2-5.6,2h0Z"/>
      <path d="M667.9,668.8v-1.4l12.8-16.2.2.7h-12.9v-1.7h14.7v1.4l-12.8,16.2-.2-.7h13.4v1.7h-15.2,0Z"/>
      <path d="M692.2,668.8v-18.5h1.6l8.4,14.4h-.8l8.4-14.4h1.6v18.5h-1.9v-15.5h.4l-7.7,13.2h-.9l-7.8-13.2h.5v15.5h-1.9Z"/>
      <path d="M719.7,668.8l8.4-18.5h1.9l8.4,18.5h-2.1l-7.8-17.3h.8l-7.8,17.3h-2,0ZM723,663.8l.6-1.6h10.7l.6,1.6h-11.9Z"/>
      <path d="M746.9,668.8v-18.5h1.6l12.7,16h-.8v-16h1.9v18.5h-1.6l-12.7-16h.8v16h-2Z"/>
      <path d="M773.6,668.8v-18.5h2v18.5h-2Z"/>
    </g>
    <g>
      <polygon points="198.9 660.2 281.8 661.7 281.8 658.6 198.9 660.3 198.9 660.2"/>
      <polygon points="874.7 660 791.8 658.6 791.8 661.7 874.7 660 874.7 660"/>
    </g>
    <path class="st1" d="M212.9,640.2c142.1-120.9,468.9,49.2,618.5-56.1-127.8,87.2-500.9-81.4-618.5,56.1Z"/>
    <path class="st0" d="M569.3,689c-2.2.8,51.3-17.9,157.6,14.8,106.3,32.8,172.7-24.2,172.7-24.2,0,0,32.7-29.2,40.4-57-19.8,42.8-87.9,104.3-209.5,72.2-34.1-11.2-109.7-24.7-161.2-5.8Z"/>
  </g>
</svg>