<?xml version="1.0" encoding="UTF-8"?>
<svg id="Layer_2" data-name="Layer 2" xmlns="http://www.w3.org/2000/svg" xmlns:xlink="http://www.w3.org/1999/xlink" viewBox="0 0 531.94 209.74">
  <defs>
    <style>
      .cls-1 {
        fill: #0d2150;
      }

      .cls-2 {
        fill: url(#linear-gradient);
      }
    </style>
    <linearGradient id="linear-gradient" x1="265.84" y1="176.96" x2="531.94" y2="176.96" gradientUnits="userSpaceOnUse">
      <stop offset="0" stop-color="#ebd18c"/>
      <stop offset=".25" stop-color="#e6cb8a"/>
      <stop offset=".51" stop-color="#f7e7b5"/>
      <stop offset=".78" stop-color="#d1b57a"/>
      <stop offset="1" stop-color="#f6d97a"/>
    </linearGradient>
  </defs>
  <g id="Layer_1-2" data-name="Layer 1">
    <g>
      <path d="M155.43,73.32c.32-.95,2.16-1.7,2.97-1.88s2.88,1.29,2.54,2.19l-3.38,9.06c4.31-5.34,11.27-13.82,16.12-11.42.96.48,1.94,2.51,1.5,3.53-1.25,2.85-4-2.15-8.89,2.31-5.6,4.92-9.62,10.69-12.59,17.67-.67.61-2.81.53-3.35-.34-.45-.71-.49-2.13-.62-3.45-2.61,2.77-6.86,4.88-9.91,2.53-2.61-2.01-1.89-5.75-1.47-8.83l-4.61,5.35c-3.57,4.15-8.9,6.69-11.87,3.82-.86-.83-1.32-2.8-1.74-4.58-3.42,4.31-8.64,6.97-12,4.43-.89-.67-1.9-2.91-1.7-4.09l1.56-9.1c.19-1.1.07-2.22-.55-3.37-3.32,2.18-5.81,4.17-7.98,7.16l-7.53,10.37c-.52.72-2.43.86-3.11.47s-1.46-2.09-1.27-2.86l1.3-5.52c-4.9,4.98-11.93,11.3-17.22,7.28-3.44-2.61-5.32-6.99-5.5-11.33.73-.36,2.13-.67,3.07-.86,6.02-1.23,11.3-7.78,10.25-10.14-.88-1.98-8.52,3.36-10.86,7.05l-6.36,10.04c-1.37,2.16-1.41,4.7-1.11,7.28-1.35.73-3.64.04-4.17-1.71-.46-1.52-.41-3.57-.4-5.43-3.94,4.99-9.57,10.06-14.51,6.98-3.65-2.28-2.16-10.09-.52-15.68,3.76-12.87,8.76-25.05,14.7-37.03,1.63-3.28,5.05-6.47,7.34-5.33.51.26.79,1.9.53,2.42l-6.17,12.47c-4.12,8.33-17.99,39.48-11.87,41.2,3.07.86,7.95-5.53,11.42-9.23,3.63-12.27,8.22-24.24,13.63-36.15,2.27-5,5.64-10.92,8.53-7.89.6.62.7,2.18.21,3.21l-7.62,15.78c-3.38,7-6.37,13.86-8.73,21.4,4.24-5.91,13.36-15.2,18.65-12.37,2.77,1.48,2.29,5.13.81,7.48-2.81,4.43-7.28,6.84-12.05,8.27,1.21,3.05,2.06,6.16,5.1,7.44,1.7.72,4.42-.69,5.85-2,2.74-2.49,5.9-4.8,8.06-7.66,2.95-3.9,3.79-15.56,8.47-11,.93.91,1.04,2.5.51,3.89l-3.49,9.25c4.77-4.85,11.7-13.01,16.39-10.74,1.13.55,2.12,2.71,1.85,4.19l-2.05,11.09c-.1.53.31,1.94.63,2.34,1.2,1.5,6-2.42,8.61-5.64,1.46-5.9,5.62-15.19,9.91-15.16.8,0,2.29,1.63,1.82,2.38-3.2,5.21-8.78,15.08-6.71,18.6,1.45,2.47,9.14-6.43,12.4-11.23l4.39-6.47c.44-.65,1.91-1.24,2.52-1.3.71-.07,2.02.81,2.21,1.61-2.13,5.16-5.85,14.21-4.02,17.28.27.45,1.89.27,2.27-.09l5.62-5.25,4.21-12.7Z"/>
      <path d="M249.86,88.1c-3.89,5.14-10.69,9.44-14.72,5.56-6.66-6.39,8.4-24.16,20.07-23.12,2.86.26,5.36,2.87,3.99,5.68-.97-1.16-1.89-2.42-2.66-3.01s-2.98-.3-4.08.2c-6.12,2.83-10.5,8.12-13.17,14.34-.47,1.1-.25,2.71.22,4.04,2.02-.68,3.99-1.36,5.3-2.78l9.63-10.48c.51-.55,1.99-.93,2.65-.76.76.2,1.85,1.87,1.44,2.57-2.34,4-5.1,9.15-3,11.35,1.16,1.22,7.92-3.54,9.27-7.28l4.27-11.83c.46-1.26,2.53-1.82,3.54-1.29,1.47.77,1.75,2.07,1.14,3.75l-3.18,8.82c4.38-4.6,11.51-12.99,15.53-10.01,1.11.83,1.85,3.03,1.57,4.56l-2.01,10.67c-.11.57.34,2.07.84,2.34,1.55.83,5.94-3.33,7.99-6.27l2.22-8.71c3.67-11.4,8.12-22.21,13.65-32.81,1.41-2.71,4.88-4.38,6.26-3.09.38.36.49,1.46.25,1.96l-3.94,8.42c-3.78,8.09-7.6,15.82-10.64,24.23-2.05,5.67-5.71,16.39-3,18.34,2.46,1.76,9.21-5.18,10.49-9.03,1.5-4.53,3.12-8.4,5.89-12.32.95-1.35,1.89-2.46,3.21-2,5.43,1.87-3.38,7.78-4.78,18.89-.09.72.4,2.17.97,2.44,3.84,1.83,10.91-9.55,11.11-7.37.22,2.41-7.34,12.93-14.32,10.05-1.22-.5-2.19-2.39-2.79-4.17-3.87,5.04-9.67,9.03-13.64,5.23-1.24-1.19-1.54-3.56-1.64-5.78-2.17,2.41-4.69,4.65-7.89,5.17-2.67.44-5.07-1.25-5.11-4.08-.08-5.51,1.92-9.1,1.28-13.17-5.35,1.97-11.08,10.88-14.5,16.47-.8,1.3-2.12,1.85-3.32,1.39-1.63-.63-1.88-2.34-1.49-4.11-3.85,3.57-9.24,5.24-11.51,2.28-.99-1.29-1.18-3.04-1.37-5.27Z"/>
      <path d="M204.16,101.23c8.73-3.5,20.13-9.49,24-17.73.93-1.99,1.27-4.98-.3-6.7-4.62-5.03-16.27-3.35-23.86-1.79l-6.2,17.71c-.6,1.71-2.35,2.68-4,2.25s-2.23-2.21-1.56-4.12c4.63-13.36,10.2-26.02,15.99-38.89.77-1.7.62-3.3,2.62-3.55,1.31-.16,4.26,1.09,3.39,3.03l-8,18c10.52-1.65,28.92-13.22,23.74-21.73-1.38-2.27-4.19-3.39-6.92-3.71-10.27-1.18-20.79,1.7-28.81,8.08-2.77,2.2-4.78,4.99-5.59,8.38-1.56.62-3.36-1.04-3.4-2.81-.07-2.81,1.4-5.01,3.49-6.77,15.38-13.02,42.34-13.15,46.34-2.39,3.53,9.51-8.96,17.9-18.62,21.54,4.11.46,7.75.98,11.2,2.73,4.24,2.36,6.44,6.67,4.99,11.54-4.59,15.38-36.58,29.41-49.37,22.45-2.9-1.58-4.26-4.46-3.47-7.64,1.24-4.97,4.87-9.22,10.26-10.34-4.09,4.23-9.07,9.89-6.48,13.47,2.77,3.82,14.23,1.54,20.57-1.01Z"/>
      <path d="M387.8,70.47c2.26-.62,4.95-.87,6.37.75,4.46,5.07-5.75,13.96-14.29,15.05-.35,2.05-.38,4.86,1.41,5.75,2.57,1.28,5.77.15,8.31-1,4.03-1.82,6.34-5.54,10.36-8.08-2.69,7.23-10.37,11.92-17.51,12.25-4.8.22-8.55-2.6-8.75-7.3-8.26,7.62-18.74,15.22-30.03,14.37-7.3-.55-12.52-5.9-12.74-13.32-.62-20.65,21.87-46.93,40.66-46.98,4.64-.01,8.44,2.85,9.34,7.24.27,6.59-3.88,12.43-10.27,14.23l-1.48-.74c-.36-.18.33-1,.69-1.33,4.76-4.35,9.46-11.25,6.25-15-.86-1-3.28-1.95-4.99-1.6-15.52,3.21-28.3,20.71-32.71,35.86-1.05,3.61-1.38,7.42-.61,11,.9,4.18,4.27,7.06,8.55,7.32,3.57.22,6.99-.85,10.29-2.24,6.82-3.03,12.83-7.27,17.86-12.57,2.19-6.38,7.13-10.93,13.3-13.66ZM390.17,73.15c-4.51,2.46-7.82,6.56-9.38,11.06,12.27-4.52,13.59-13.36,9.38-11.06Z"/>
      <path d="M452.58,81.52c4.78-5.35,13.12-14.83,16.47-8.42.24.46.25,1.68-.02,2.11-1.04,1.66-4.07-1.72-8.03,1.65-5.66,4.81-9.58,10.66-12.73,17.49-.39.85-2.36,1.05-3.07.61-.91-.56-1.25-2.03-1.31-3.32-2.14,1.88-6.01,4.02-8.76,2.07s-2.11-5.98-1.95-9.26c-4,5.91-10.81,13.36-15.51,9.85-2.19-1.63-2.18-4.19-2.13-7.02l-4.44,4.19c-5.36,5.06-14.22,6.24-15.27,3.56-.23-.59.67-1.98,1.24-2.19l1.7-.63c.36-.13.95,1.3,1.32,1.4,1.75.46,4.92-.99,6.13-2.63,1.42-1.92,1.12-3.9-.38-5.5l-4.11-4.36c-1.89-2.01-2.26-5.11-.24-7.25,3.44-3.65,9.24-5.45,14-4,.55.17.57,1.91.14,2.15-.56.31-1.59.46-2.5.28-2.82-.56-6.54,1.13-7.52,4.23.29,3.83,5.95,5.55,7.26,11.14l3.23-2.88c1.35-4.51,3.81-9.48,6.85-12.98.49-.57,2.17-.86,2.81-.93.75-.08,2.26,1.51,1.87,2.16-3.45,5.84-8.03,12.64-6.56,19,9.29-3.1,13.75-17.34,17.73-19.3.84-.41,2.83.09,3.41.9-2.9,6.15-6.22,19.11-3,17.88,2.17-.82,5.06-2.91,6.08-4.9l4.47-13.03c.27-.79,1.89-1.77,2.67-1.91,1-.18,2.64.89,2.96,1.8l-2.82,8.06Z"/>
      <path d="M24.98,103.63c-.9,1.59-3.22,2.62-5.39,2.37-5.46-.63-3.84-9.6-1.8-16.21,5.8-18.76,13.21-36.71,22.47-53.97.58-1.09,2.15-2.07,3.05-2.3,1.03-.26,2.64.41,3.63,1.75-9.68,18.51-17.89,37.24-23.77,57.27l-1.85,8.89c-.1.47.56,1.91,1.04,1.96l2.61.25Z"/>
      <path d="M49,28.04c-1.49,1.14-4.02,1.92-5.4.51-1.52-1.57-.51-3.92.66-5.04,1.43-1.37,3.64-1.84,5.3-.42,1.5,1.29.97,3.78-.56,4.95Z"/>
    </g>
    <g>
      <path d="M184.77,20.02V3.81c0-1.28-.2-2.11-.6-2.5s-1.25-.6-2.57-.62v-.69h9.21c4.84,0,8.53,1.02,11.07,3.06s3.81,5,3.81,8.88-1.26,6.63-3.78,8.74-6,3.16-10.44,3.16h-9.86v-.69c1.31-.02,2.17-.23,2.57-.63.4-.39.6-1.22.6-2.5ZM188.44,20.5c0,.73.11,1.22.33,1.48s.65.41,1.29.46l1.18.09c3.35,0,5.94-.92,7.77-2.77s2.74-4.45,2.74-7.81-.97-5.99-2.92-7.84-4.7-2.78-8.26-2.78l-.88.04c-.5.01-.84.12-1,.33s-.25.61-.25,1.22v17.6Z"/>
      <path d="M210.29,21.85c-1.49-1.56-2.23-3.55-2.23-5.98s.74-4.57,2.23-6.18,3.39-2.42,5.71-2.42,4.22.78,5.71,2.35,2.23,3.57,2.23,6-.74,4.55-2.23,6.15-3.39,2.41-5.71,2.41-4.22-.78-5.71-2.34ZM219.54,21.62c.78-1.04,1.17-2.44,1.17-4.18,0-2.79-.46-5.01-1.39-6.67s-2.17-2.49-3.73-2.49c-1.31,0-2.36.52-3.14,1.57s-1.17,2.45-1.17,4.21c0,2.78.47,4.99,1.4,6.64s2.17,2.48,3.72,2.48c1.31,0,2.36-.52,3.14-1.56Z"/>
      <path d="M239.84,18.54c-.86,1.9-1.87,3.31-3.05,4.25s-2.53,1.4-4.07,1.4c-1.99,0-3.62-.75-4.9-2.24s-1.91-3.41-1.91-5.74c0-2.54.77-4.67,2.31-6.37s3.47-2.56,5.77-2.56c1.39,0,2.63.37,3.72,1.1s1.63,1.57,1.63,2.5c0,.47-.15.85-.46,1.15-.3.3-.7.45-1.18.45-.52,0-.92-.17-1.21-.5s-.53-.89-.7-1.67-.43-1.31-.77-1.58-.9-.41-1.69-.41c-1.32,0-2.43.62-3.31,1.85-.89,1.23-1.33,2.76-1.33,4.59,0,1.96.53,3.59,1.59,4.9,1.06,1.31,2.38,1.97,3.96,1.97.94,0,1.79-.25,2.57-.77s1.62-1.38,2.53-2.61l.5.3ZM233.6,23.84l-.86,2.29.93-.02c.96,0,1.71.22,2.25.67s.81,1.07.81,1.86c0,.93-.4,1.67-1.2,2.24s-1.86.85-3.17.85c-.6,0-1.19-.06-1.78-.18s-1.05-.26-1.38-.44l.49-1.09c.33.13.71.23,1.14.32s.8.12,1.09.12c.69,0,1.22-.14,1.57-.42s.54-.7.54-1.25c0-.43-.14-.76-.41-.98s-.68-.33-1.2-.33c-.3,0-.57.01-.81.04s-.4.07-.49.11l-.26-.18,1.48-3.62h1.28Z"/>
      <path d="M245.52,20.23c.56,0,1.04.19,1.42.58s.58.86.58,1.42-.19,1.02-.58,1.41-.86.58-1.42.58-1.04-.19-1.42-.58-.58-.86-.58-1.41.19-1.04.58-1.42.86-.58,1.42-.58Z"/>
      <path d="M262.74,20.02V3.81c0-1.28-.2-2.11-.6-2.5s-1.25-.6-2.57-.62v-.69h9.21c4.84,0,8.53,1.02,11.06,3.06s3.81,5,3.81,8.88-1.26,6.63-3.78,8.74-6,3.16-10.44,3.16h-9.86v-.69c1.31-.02,2.17-.23,2.57-.63.4-.39.6-1.22.6-2.5ZM266.42,20.5c0,.73.11,1.22.33,1.48s.65.41,1.29.46l1.18.09c3.35,0,5.94-.92,7.77-2.77s2.74-4.45,2.74-7.81-.97-5.99-2.92-7.84-4.7-2.78-8.26-2.78l-.88.04c-.5.01-.84.12-1,.33s-.25.61-.25,1.22v17.6Z"/>
      <path d="M287.74,20.5v-8.58c0-1.1-.16-1.78-.47-2.03s-.99-.26-2.03-.03v-.58c1.04-.35,1.93-.67,2.67-.95.75-.29,1.63-.66,2.65-1.09l.16.11v3.38c.6-.95,1.2-1.71,1.81-2.27.84-.79,1.71-1.18,2.58-1.18.59,0,1.05.18,1.4.53s.52.83.52,1.42c0,.48-.13.86-.38,1.15s-.58.43-.99.43c-.23,0-.46-.05-.68-.14s-.44-.24-.66-.45-.43-.37-.63-.49-.36-.18-.47-.18c-.4,0-.81.22-1.23.65-.26.27-.53.63-.83,1.07-.13.19-.23.4-.3.64s-.11.47-.11.68v7.91c0,1.15.2,1.9.59,2.26s1.23.54,2.52.55v.53h-8.7v-.53c1.07-.01,1.76-.2,2.09-.56.32-.35.47-1.1.47-2.25Z"/>
      <path d="M301.5,20.23c.56,0,1.04.19,1.42.58s.58.86.58,1.42-.19,1.02-.58,1.41-.86.58-1.42.58-1.04-.19-1.42-.58-.58-.86-.58-1.41.19-1.04.58-1.42.86-.58,1.42-.58Z"/>
    </g>
    <g>
      <path d="M76.92,177.4c-1,0-1.92-.17-2.77-.5-.85-.33-1.58-.81-2.2-1.41-.62-.61-1.1-1.32-1.45-2.14s-.52-1.72-.52-2.69.17-1.87.52-2.69.83-1.54,1.46-2.14c.62-.61,1.36-1.08,2.21-1.41.85-.33,1.77-.5,2.77-.5s1.86.16,2.71.48c.85.32,1.56.81,2.14,1.45l-.89.89c-.54-.56-1.14-.96-1.8-1.2-.66-.25-1.36-.37-2.12-.37-.8,0-1.54.14-2.22.41s-1.28.66-1.78,1.16-.9,1.08-1.18,1.74c-.28.66-.43,1.39-.43,2.19s.14,1.53.43,2.19c.28.66.68,1.24,1.18,1.74s1.1.88,1.78,1.16c.68.27,1.42.41,2.22.41s1.47-.13,2.12-.38c.66-.25,1.26-.66,1.8-1.21l.89.89c-.58.64-1.3,1.13-2.14,1.46-.85.33-1.76.49-2.73.49ZM76.24,181.46c-.32,0-.6-.04-.86-.11-.26-.08-.5-.18-.73-.32l.32-.72c.19.11.39.2.6.27s.43.09.65.09c.38,0,.67-.08.87-.24.2-.16.3-.38.3-.65,0-.25-.1-.46-.29-.62-.2-.17-.49-.25-.88-.25h-.44l.45-1.72h.81l-.28,1.1c.52.04.92.2,1.19.48s.42.63.42,1.05c0,.5-.2.91-.6,1.2s-.91.45-1.54.45Z"/>
      <path d="M94.38,177.4c-1,0-1.92-.17-2.78-.5-.85-.33-1.59-.81-2.22-1.42-.63-.61-1.11-1.33-1.46-2.14s-.52-1.71-.52-2.68.17-1.87.52-2.68c.35-.81.83-1.53,1.46-2.14.62-.61,1.36-1.09,2.21-1.42.85-.33,1.77-.5,2.79-.5s1.92.17,2.77.5c.85.33,1.58.81,2.21,1.41s1.11,1.32,1.46,2.14c.35.82.52,1.72.52,2.69s-.17,1.87-.52,2.69c-.35.82-.83,1.54-1.46,2.14-.63.61-1.36,1.08-2.21,1.41-.85.33-1.77.5-2.77.5ZM94.38,176.15c.8,0,1.53-.14,2.21-.41.68-.27,1.26-.66,1.76-1.16.5-.5.89-1.08,1.17-1.74.28-.66.42-1.39.42-2.19s-.14-1.53-.42-2.19c-.28-.66-.67-1.24-1.17-1.74-.5-.5-1.09-.88-1.76-1.16-.68-.27-1.41-.41-2.21-.41s-1.53.14-2.22.41c-.68.27-1.28.66-1.78,1.16s-.9,1.08-1.17,1.74-.42,1.39-.42,2.19.14,1.51.42,2.18.67,1.25,1.17,1.75,1.1.88,1.78,1.16c.68.27,1.42.41,2.22.41Z"/>
      <path d="M114.03,177.4c-1,0-1.92-.17-2.77-.5-.85-.33-1.58-.81-2.2-1.41-.62-.61-1.1-1.32-1.45-2.14s-.52-1.72-.52-2.69.17-1.87.52-2.69.83-1.54,1.46-2.14c.62-.61,1.36-1.08,2.21-1.41.85-.33,1.77-.5,2.77-.5s1.86.16,2.71.48c.85.32,1.56.81,2.14,1.45l-.89.89c-.54-.56-1.14-.96-1.8-1.2-.66-.25-1.36-.37-2.12-.37-.8,0-1.54.14-2.22.41s-1.28.66-1.78,1.16-.9,1.08-1.18,1.74c-.28.66-.43,1.39-.43,2.19s.14,1.53.43,2.19c.28.66.68,1.24,1.18,1.74s1.1.88,1.78,1.16c.68.27,1.42.41,2.22.41s1.47-.13,2.12-.38c.66-.25,1.26-.66,1.8-1.21l.89.89c-.58.64-1.3,1.13-2.14,1.46-.85.33-1.76.49-2.73.49Z"/>
      <path d="M131.03,177.4c-1.69,0-3.03-.49-4-1.46-.97-.97-1.46-2.41-1.46-4.32v-7.6h1.4v7.54c0,1.57.35,2.72,1.06,3.47.71.75,1.71,1.12,2.99,1.12s2.31-.37,3.01-1.12c.71-.75,1.06-1.9,1.06-3.47v-7.54h1.36v7.6c0,1.91-.48,3.35-1.45,4.32-.97.97-2.3,1.46-3.99,1.46Z"/>
      <path d="M144.48,177.29v-13.26h1.4v13.26h-1.4ZM145.69,173.99l-.06-1.71,8.03-8.26h1.61l-5.86,6.14-.8.85-2.94,2.98ZM154.01,177.29l-5.72-6.59.95-1.02,6.44,7.62h-1.67Z"/>
      <path d="M176.26,177.4c-1,0-1.92-.17-2.77-.5-.85-.33-1.58-.81-2.2-1.41-.62-.61-1.1-1.32-1.45-2.14s-.52-1.72-.52-2.69.17-1.87.52-2.69.83-1.54,1.46-2.14c.62-.61,1.36-1.08,2.21-1.41.85-.33,1.77-.5,2.77-.5s1.86.16,2.71.48c.85.32,1.56.81,2.14,1.45l-.89.89c-.54-.56-1.14-.96-1.8-1.2-.66-.25-1.36-.37-2.12-.37-.8,0-1.54.14-2.22.41s-1.28.66-1.78,1.16-.9,1.08-1.18,1.74c-.28.66-.43,1.39-.43,2.19s.14,1.53.43,2.19c.28.66.68,1.24,1.18,1.74s1.1.88,1.78,1.16c.68.27,1.42.41,2.22.41s1.47-.13,2.12-.38c.66-.25,1.26-.66,1.8-1.21l.89.89c-.58.64-1.3,1.13-2.14,1.46-.85.33-1.76.49-2.73.49Z"/>
      <path d="M189.32,176.08h7.98v1.21h-9.38v-13.26h9.1v1.21h-7.69v10.84ZM189.16,169.95h7.01v1.19h-7.01v-1.19Z"/>
      <path d="M204.38,177.29v-13.26h4.97c1.12,0,2.09.18,2.9.54.81.36,1.43.88,1.87,1.55.44.68.65,1.49.65,2.45s-.22,1.74-.65,2.42c-.44.68-1.06,1.19-1.87,1.55s-1.77.54-2.9.54h-4.19l.62-.64v4.85h-1.4ZM205.78,172.55l-.62-.66h4.15c1.33,0,2.33-.29,3.02-.87s1.03-1.4,1.03-2.44-.34-1.88-1.03-2.46-1.7-.87-3.02-.87h-4.15l.62-.66v7.98ZM213.44,177.29l-3.41-4.81h1.52l3.43,4.81h-1.54Z"/>
      <path d="M221.87,177.29v-13.26h4.97c1.12,0,2.09.18,2.9.54.81.36,1.43.88,1.87,1.55.44.68.65,1.49.65,2.45s-.22,1.74-.65,2.42c-.44.68-1.06,1.19-1.87,1.55s-1.77.54-2.9.54h-4.19l.62-.64v4.85h-1.4ZM223.27,172.55l-.62-.66h4.15c1.33,0,2.33-.29,3.02-.87s1.03-1.4,1.03-2.44-.34-1.88-1.03-2.46-1.7-.87-3.02-.87h-4.15l.62-.66v7.98ZM230.93,177.29l-3.41-4.81h1.52l3.43,4.81h-1.54Z"/>
      <path d="M237.24,177.29l6.06-13.26h1.38l6.06,13.26h-1.48l-5.57-12.45h.57l-5.57,12.45h-1.46ZM239.63,173.74l.42-1.14h7.71l.42,1.14h-8.55Z"/>
      <path d="M258.14,177.29h-1.4v-13.26h1.4v13.26ZM266.57,171.17h-8.58v-1.23h8.58v1.23ZM266.44,164.02h1.38v13.26h-1.38v-13.26Z"/>
      <path d="M276.64,162.51c-.25,0-.47-.09-.64-.27s-.27-.39-.27-.64.09-.47.27-.64c.18-.18.39-.27.64-.27s.47.09.64.27c.18.18.27.39.27.64s-.09.47-.27.64-.39.27-.64.27ZM275.94,177.29v-13.26h1.4v13.26h-1.4Z"/>
      <path d="M289.11,177.4c-.98,0-1.93-.16-2.83-.48-.9-.32-1.6-.74-2.09-1.24l.55-1.08c.47.46,1.1.84,1.88,1.15.79.31,1.62.46,2.49.46s1.51-.1,2.04-.31c.52-.21.91-.49,1.16-.84.25-.35.37-.75.37-1.17,0-.52-.15-.93-.45-1.25-.3-.32-.69-.56-1.17-.75-.48-.18-1.01-.34-1.59-.48-.58-.14-1.16-.29-1.74-.45-.58-.16-1.12-.37-1.6-.63s-.88-.62-1.17-1.05c-.3-.44-.45-1.01-.45-1.71,0-.66.17-1.26.52-1.81.35-.55.88-.99,1.6-1.33.72-.33,1.64-.5,2.77-.5.74,0,1.48.1,2.22.31.73.21,1.36.5,1.89.86l-.47,1.12c-.57-.38-1.17-.66-1.81-.83-.64-.18-1.25-.26-1.85-.26-.8,0-1.45.11-1.97.32-.52.22-.9.5-1.15.86-.25.36-.37.77-.37,1.22,0,.52.15.94.45,1.25s.69.56,1.17.74,1.02.33,1.6.47c.58.14,1.16.29,1.73.45.57.17,1.11.38,1.59.63.49.26.88.6,1.17,1.03s.45.99.45,1.69c0,.64-.18,1.24-.53,1.79s-.89.99-1.62,1.33c-.73.33-1.66.5-2.79.5Z"/>
      <path d="M301.59,162.51c-.25,0-.47-.09-.64-.27-.18-.18-.27-.39-.27-.64s.09-.47.27-.64c.18-.18.39-.27.64-.27s.47.09.64.27c.18.18.26.39.26.64s-.09.47-.26.64c-.18.18-.39.27-.64.27ZM300.89,177.29v-13.26h1.4v13.26h-1.4Z"/>
      <path d="M324.5,177.4c-1.69,0-3.03-.49-4-1.46-.97-.97-1.46-2.41-1.46-4.32v-7.6h1.4v7.54c0,1.57.35,2.72,1.06,3.47.71.75,1.71,1.12,2.99,1.12s2.3-.37,3.01-1.12c.71-.75,1.06-1.9,1.06-3.47v-7.54h1.36v7.6c0,1.91-.48,3.35-1.45,4.32-.97.97-2.29,1.46-3.99,1.46Z"/>
      <path d="M336.65,177.29v-.97l9.21-11.62.15.53h-9.23v-1.21h10.52v.97l-9.19,11.62-.17-.53h9.59v1.21h-10.88Z"/>
      <path d="M354.08,177.29v-13.26h1.16l6.06,10.35h-.61l6.01-10.35h1.16v13.26h-1.35v-11.16h.32l-5.53,9.48h-.66l-5.57-9.48h.36v11.16h-1.35Z"/>
      <path d="M373.85,177.29l6.06-13.26h1.38l6.06,13.26h-1.48l-5.57-12.45h.57l-5.57,12.45h-1.46ZM376.24,173.74l.42-1.14h7.71l.42,1.14h-8.55Z"/>
      <path d="M393.35,177.29v-13.26h1.16l9.15,11.52h-.61v-11.52h1.38v13.26h-1.16l-9.13-11.52h.61v11.52h-1.4Z"/>
      <path d="M412.55,177.29v-13.26h1.4v13.26h-1.4Z"/>
    </g>
    <g>
      <polygon points="0 171.18 59.5 172.19 59.5 170 0 171.19 0 171.18"/>
      <polygon points="485.11 171.01 425.61 170 425.61 172.19 485.11 171.01 485.11 171.01"/>
    </g>
    <path class="cls-1" d="M10.05,156.79c101.99-86.8,336.56,35.32,443.95-40.3C362.29,179.09,94.47,58.08,10.05,156.79Z"/>
    <path class="cls-2" d="M265.89,191.83c-1.61.59,36.81-12.88,113.11,10.63s123.96-17.39,123.96-17.39c0,0,23.5-20.93,28.98-40.89-14.23,30.69-63.12,74.89-150.36,51.84-24.47-8.05-78.76-17.71-115.69-4.19Z"/>
  </g>
</svg>